<svg width="640" height="400" viewBox="0 0 640 400" fill="none" xmlns="http://www.w3.org/2000/svg">
  <defs>
    <linearGradient id="gosBg" x1="0" y1="0" x2="640" y2="400" gradientUnits="userSpaceOnUse">
      <stop stop-color="#0F172A"/>
      <stop offset="1" stop-color="#155E63"/>
    </linearGradient>
  </defs>
  <rect width="640" height="400" rx="20" fill="url(#gosBg)"/>
  <!-- radar motif -->
  <g transform="translate(516 116)" opacity="0.5" stroke="#5EEAD4" fill="none">
    <circle r="78" stroke-opacity="0.25"/>
    <circle r="52" stroke-opacity="0.35"/>
    <circle r="26" stroke-opacity="0.5"/>
    <path d="M0 0 L70 -34" stroke-width="2" stroke-opacity="0.8"/>
    <circle cx="44" cy="-22" r="5" fill="#2DD4BF" stroke="none"/>
    <circle cx="-30" cy="18" r="4" fill="#2DD4BF" stroke="none"/>
    <circle cx="14" cy="40" r="4" fill="#2DD4BF" stroke="none"/>
  </g>
  <text x="56" y="92" font-family="Poppins, Arial, sans-serif" font-size="34" font-weight="700" fill="#ffffff">IT Procurement Radar</text>
  <text x="57" y="124" font-family="Poppins, Arial, sans-serif" font-size="18" fill="#99F6E4">Screening goszakup.gov.kz for open IT lots</text>
  <!-- mock dashboard rows -->
  <g>
    <rect x="56" y="156" width="528" height="52" rx="10" fill="#ffffff" fill-opacity="0.07"/>
    <rect x="72" y="172" width="220" height="10" rx="5" fill="#5EEAD4" fill-opacity="0.8"/>
    <rect x="72" y="190" width="150" height="8" rx="4" fill="#ffffff" fill-opacity="0.3"/>
    <rect x="520" y="170" width="48" height="24" rx="12" fill="#2DD4BF"/>
    <text x="544" y="187" font-family="Poppins, Arial, sans-serif" font-size="13" font-weight="600" fill="#0F172A" text-anchor="middle">9.2</text>

    <rect x="56" y="218" width="528" height="52" rx="10" fill="#ffffff" fill-opacity="0.07"/>
    <rect x="72" y="234" width="260" height="10" rx="5" fill="#5EEAD4" fill-opacity="0.7"/>
    <rect x="72" y="252" width="120" height="8" rx="4" fill="#ffffff" fill-opacity="0.3"/>
    <rect x="520" y="232" width="48" height="24" rx="12" fill="#14B8A6"/>
    <text x="544" y="249" font-family="Poppins, Arial, sans-serif" font-size="13" font-weight="600" fill="#0F172A" text-anchor="middle">8.1</text>

    <rect x="56" y="280" width="528" height="52" rx="10" fill="#ffffff" fill-opacity="0.07"/>
    <rect x="72" y="296" width="190" height="10" rx="5" fill="#5EEAD4" fill-opacity="0.7"/>
    <rect x="72" y="314" width="170" height="8" rx="4" fill="#ffffff" fill-opacity="0.3"/>
    <rect x="520" y="294" width="48" height="24" rx="12" fill="#0D9488"/>
    <text x="544" y="311" font-family="Poppins, Arial, sans-serif" font-size="13" font-weight="600" fill="#ffffff" text-anchor="middle">7.4</text>
  </g>
</svg>
