<svg width="64" height="64" viewBox="0 0 64 64" fill="none" xmlns="http://www.w3.org/2000/svg">
  <rect width="64" height="64" rx="13" fill="#F05138"/>
  <path d="M44.6 43.3c-5.2 3-12.1 3.3-19 .35a31.4 31.4 0 0 1-13.2-10.6c1.6 1.2 3.5 2.2 5.5 3 8 3.75 16 3.5 21.6 0-8-6.1-14.8-14.1-19.9-20.6a23 23 0 0 1-2.5-3.4c6.1 5.6 15.8 12.6 19.3 14.6-7.3-7.7-13.8-17.2-13.5-16.9a121 121 0 0 0 19.6 15.9c.34.19.6.35.82.5.23-.57.42-1.16.57-1.78 1.6-5.8-.13-12.4-4-17.9C53.9 17.8 58.6 30 56.6 40.2c-.04.27-.1.54-.16.8l.06.07c3.9 4.9 2.84 10.1 2.35 9.1-2.1-4.1-6-2.83-8-1.83l-.05.02-.05.02c-.1.05-.2.1-.31.16l.01-.01.04-.03c.06-.04.11-.08.16-.13Z" fill="#fff"/>
</svg>
