<svg width="54" height="64" viewBox="0 0 54 64" fill="none" xmlns="http://www.w3.org/2000/svg">
  <path d="M4.6 6.1 4 56.8a2.4 2.4 0 0 0 2.3 2.45l38.9 2.74a2.4 2.4 0 0 0 2.57-2.4V4.4a2.4 2.4 0 0 0-2.5-2.4L7 3.74A2.4 2.4 0 0 0 4.6 6.1Z" fill="#FF4785"/>
  <path d="M34.1 6.6l.27-6.32 5.24-.2.23 6.53a.4.4 0 0 1-.64.33l-2.02-1.53-2.4 1.82a.4.4 0 0 1-.65-.33Zm-4.06 16c0 1.04 7.04.54 7.99-.2 0-7.13-3.83-10.87-10.83-10.87-7 0-10.93 3.8-10.93 9.5 0 9.92 13.4 10.11 13.4 15.52 0 1.52-.74 2.42-2.39 2.42-2.13 0-2.98-1.09-2.88-4.79 0-.8-8.12-1.05-8.37 0-.58 8.96 5 11.54 11.36 11.54 6.17 0 11-3.29 11-9.26 0-10.63-13.6-10.35-13.6-15.61 0-2.14 1.59-2.42 2.53-2.42.99 0 2.77.17 2.67 4.18Z" fill="#fff"/>
</svg>
