<svg width="52" height="64" viewBox="0 0 52 64" fill="none" xmlns="http://www.w3.org/2000/svg">
  <path d="M38.4 2 8.6 31.8a1 1 0 0 0 0 1.42l8.5 8.5L48.9 9.7a1 1 0 0 0-.7-1.7H39.1a1 1 0 0 1-.71-.29Z" fill="#47C5FB"/>
  <path d="M38.2 30.7H29a1 1 0 0 0-.7.29L17.1 42.2l8.5 8.55 12.6-12.6 9.7-9.74a1 1 0 0 0-.71-1.7Z" fill="#47C5FB"/>
  <path d="m25.6 50.75 8.5 8.5a1 1 0 0 0 .71.3h9.6a1 1 0 0 0 .7-1.71L36.7 49.6 25.6 50.75Z" fill="#00569E"/>
  <path d="M17.1 42.2 25.6 50.75 36.7 49.6 28.3 41.2a1 1 0 0 0-.7-.3h-9.8Z" fill="#00B5F8"/>
  <path d="m25.6 50.75 7.05-2.34-.7-.71-6.35 3.05Z" fill="#000" fill-opacity="0.15"/>
</svg>
