<svg width="62" height="64" viewBox="0 0 62 64" fill="none" xmlns="http://www.w3.org/2000/svg">
  <defs>
    <linearGradient id="viteA" x1="6" y1="4" x2="34" y2="56" gradientUnits="userSpaceOnUse">
      <stop stop-color="#41D1FF"/>
      <stop offset="1" stop-color="#BD34FE"/>
    </linearGradient>
    <linearGradient id="viteB" x1="24" y1="8" x2="34" y2="58" gradientUnits="userSpaceOnUse">
      <stop stop-color="#FFEA83"/>
      <stop offset="0.08" stop-color="#FFDD35"/>
      <stop offset="1" stop-color="#FFA800"/>
    </linearGradient>
  </defs>
  <path d="M60.5 11.4 32.6 61.3a1.5 1.5 0 0 1-2.6 0L1.5 11.4a1.5 1.5 0 0 1 1.5-2.2l28 5a1.5 1.5 0 0 0 .5 0l27.5-5a1.5 1.5 0 0 1 1.5 2.2Z" fill="url(#viteA)"/>
  <path d="M44.4 3.2 23.7 7.3a.75.75 0 0 0-.6.7l-1.3 21.5a.75.75 0 0 0 .9.77l5.8-1.34a.75.75 0 0 1 .9.88l-1.7 8.4a.75.75 0 0 0 .95.86l3.6-1.1a.75.75 0 0 1 .95.86l-2.8 13.4c-.18.86.96 1.33 1.44.59l.32-.5 17.1-34.2a.75.75 0 0 0-.82-1.07l-6 1.15a.75.75 0 0 1-.87-.94l3.9-13.6a.75.75 0 0 0-.93-.93Z" fill="url(#viteB)"/>
</svg>
